<mxfile host="app.diagrams.net" modified="2023-10-09T02:44:14.684Z" agent="Mozilla/5.0 (Windows NT 10.0; Win64; x64) AppleWebKit/537.36 (KHTML, like Gecko) Chrome/117.0.0.0 Safari/537.36" version="21.8.2" etag="6ukEu41huUsIqtXmJkKL" type="github">
  <diagram name="第 1 页" id="a07hJsBAA4NF62cvXyuH">
    <mxGraphModel>
      <root>
        <mxCell id="0" />
        <mxCell id="1" parent="0" />
      </root>
    </mxGraphModel>
  </diagram>
</mxfile>
